# xmcd CD database file
#
# Track frame offsets:
#	187
#	19397
#	37809
#	57699
#	73869
#	100062
#	120609
#	142602
#	167339
#	185362
#
# Disc length: 2715 seconds
#
# Revision: 2
# Processed by: cddbd v1.5PL3 Copyright (c) Steve Scherf et al.
# Submitted via: CDex 1.51
#
DISCID=800a990a
DTITLE=Kane Roberts - Saints And Sinners
DYEAR=1991
DGENRE=Hard Rock
TTITLE0=Wild Nights
TTITLE1=Twisted
TTITLE2=Does Anybody Really Fall In Love Anymore?
TTITLE3=Dance Little Sister
TTITLE4=Rebel Heart
TTITLE5=You Always Want It
TTITLE6=Fighter
TTITLE7=I'm Not Lookin' For An Angel
TTITLE8=Too Far Gone
TTITLE9=It's Only Over For You
EXTD=YEAR: 1991
EXTT0=
EXTT1=
EXTT2=
EXTT3=
EXTT4=
EXTT5=
EXTT6=
EXTT7=
EXTT8=
EXTT9=
PLAYORDER=
